<svg width="17" height="27" viewBox="0 0 17 27" fill="none" xmlns="http://www.w3.org/2000/svg">
<path d="M14.45 0H2.55C1.14219 0 0 1.13379 0 2.53125V24.4688C0 25.8662 1.14219 27 2.55 27H14.45C15.8578 27 17 25.8662 17 24.4688V2.53125C17 1.13379 15.8578 0 14.45 0ZM8.5 25.3125C7.55969 25.3125 6.8 24.5584 6.8 23.625C6.8 22.6916 7.55969 21.9375 8.5 21.9375C9.44031 21.9375 10.2 22.6916 10.2 23.625C10.2 24.5584 9.44031 25.3125 8.5 25.3125ZM14.45 19.6172C14.45 19.9652 14.1631 20.25 13.8125 20.25H3.1875C2.83688 20.25 2.55 19.9652 2.55 19.6172V3.16406C2.55 2.81602 2.83688 2.53125 3.1875 2.53125H13.8125C14.1631 2.53125 14.45 2.81602 14.45 3.16406V19.6172Z" fill="#9FEF04"/>
</svg>
