<svg width="31" height="33" viewBox="0 0 31 33" fill="none" xmlns="http://www.w3.org/2000/svg">
<path d="M6.18164 10.4027C6.18164 12.8965 7.17228 15.2881 8.93563 17.0514C10.699 18.8148 13.0906 19.8054 15.5843 19.8054C18.0781 19.8054 20.4697 18.8148 22.2331 17.0514C23.9964 15.2881 24.9871 12.8965 24.9871 10.4027C24.9871 7.90895 23.9964 5.51734 22.2331 3.75399C20.4697 1.99064 18.0781 1 15.5843 1C13.0906 1 10.699 1.99064 8.93563 3.75399C7.17228 5.51734 6.18164 7.90895 6.18164 10.4027Z" stroke="#9FEF04" stroke-width="2" stroke-linecap="round" stroke-linejoin="round"/>
<path d="M15.584 1C17.673 1.52185 18.7182 4.65609 18.7182 10.4027C18.7182 16.1493 17.673 19.2836 15.584 19.8054" stroke="#9FEF04" stroke-width="2" stroke-linecap="round" stroke-linejoin="round"/>
<path d="M15.5835 1C13.4945 1.52185 12.4492 4.65609 12.4492 10.4027C12.4492 16.1493 13.4945 19.2836 15.5835 19.8054" stroke="#9FEF04" stroke-width="2" stroke-linecap="round" stroke-linejoin="round"/>
<path d="M6.18164 10.4026H24.9871" stroke="#9FEF04" stroke-width="2" stroke-linecap="round" stroke-linejoin="round"/>
<path d="M1.16602 27.9546H12.4493" stroke="#9FEF04" stroke-width="2" stroke-linecap="round" stroke-linejoin="round"/>
<path d="M18.7168 27.9541H30" stroke="#9FEF04" stroke-width="2" stroke-linecap="round" stroke-linejoin="round"/>
<path d="M12.4492 27.9543C12.4492 28.7856 12.7794 29.5828 13.3672 30.1705C13.955 30.7583 14.7522 31.0885 15.5835 31.0885C16.4147 31.0885 17.2119 30.7583 17.7997 30.1705C18.3875 29.5828 18.7177 28.7856 18.7177 27.9543C18.7177 27.1231 18.3875 26.3258 17.7997 25.7381C17.2119 25.1503 16.4147 24.8201 15.5835 24.8201C14.7522 24.8201 13.955 25.1503 13.3672 25.7381C12.7794 26.3258 12.4492 27.1231 12.4492 27.9543Z" stroke="#9FEF04" stroke-width="2" stroke-linecap="round" stroke-linejoin="round"/>
<path d="M15.584 19.8054V24.8202" stroke="#9FEF04" stroke-width="2" stroke-linecap="round" stroke-linejoin="round"/>
</svg>
