<svg width="29" height="29" viewBox="0 0 29 29" fill="none" xmlns="http://www.w3.org/2000/svg">
<path d="M20.9444 1.93333C23.3611 1.93333 25.7778 2.9 27.7111 4.67222L29 3.38333C26.7444 1.12778 23.8444 0 20.9444 0C18.0444 0 15.1444 1.12778 12.8889 3.38333L14.1778 4.67222C16.1111 2.9 18.5278 1.93333 20.9444 1.93333ZM15.6278 5.96111L16.9167 7.25C18.0444 6.12222 19.4944 5.63889 20.9444 5.63889C22.3944 5.63889 23.8444 6.12222 24.9722 7.25L26.2611 5.96111C24.8111 4.51111 22.8778 3.70556 20.9444 3.70556C19.0111 3.70556 17.0778 4.51111 15.6278 5.96111ZM25.7778 16.1111H22.5556V9.66667H19.3333V16.1111H3.22222C1.45 16.1111 0 17.5611 0 19.3333V25.7778C0 27.55 1.45 29 3.22222 29H25.7778C27.55 29 29 27.55 29 25.7778V19.3333C29 17.5611 27.55 16.1111 25.7778 16.1111ZM25.7778 25.7778H3.22222V19.3333H25.7778V25.7778ZM4.83333 20.9444H8.05556V24.1667H4.83333V20.9444ZM10.4722 20.9444H13.6944V24.1667H10.4722V20.9444ZM16.1111 20.9444H19.3333V24.1667H16.1111V20.9444Z" fill="#9FEF04"/>
</svg>
