<svg width="32" height="27" viewBox="0 0 32 27" fill="none" xmlns="http://www.w3.org/2000/svg">
<path d="M1.5 5.66073C1.5 4.42463 2.00923 3.23915 2.91566 2.3651C3.82209 1.49104 5.05147 1 6.33335 1H25.6668C26.9486 1 28.178 1.49104 29.0845 2.3651C29.9909 3.23915 30.5001 4.42463 30.5001 5.66073V8.76789C30.5001 10.004 29.9909 11.1895 29.0845 12.0635C28.178 12.9376 26.9486 13.4286 25.6668 13.4286H6.33335C5.05147 13.4286 3.82209 12.9376 2.91566 12.0635C2.00923 11.1895 1.5 10.004 1.5 8.76789V5.66073Z" stroke="#9FEF04" stroke-width="2" stroke-linecap="round" stroke-linejoin="round"/>
<path d="M1.5 18.0892C1.5 16.8531 2.00923 15.6676 2.91566 14.7936C3.82209 13.9195 5.05147 13.4285 6.33335 13.4285H25.6668C26.9486 13.4285 28.178 13.9195 29.0845 14.7936C29.9909 15.6676 30.5001 16.8531 30.5001 18.0892V21.1964C30.5001 22.4325 29.9909 23.6179 29.0845 24.492C28.178 25.366 26.9486 25.8571 25.6668 25.8571H6.33335C5.05147 25.8571 3.82209 25.366 2.91566 24.492C2.00923 23.6179 1.5 22.4325 1.5 21.1964V18.0892Z" stroke="#9FEF04" stroke-width="2" stroke-linecap="round" stroke-linejoin="round"/>
<path d="M13.9277 7.21411H24.2849" stroke="#9FEF04" stroke-width="2" stroke-linecap="round" stroke-linejoin="round"/>
<path d="M13.9277 19.6426H24.2849" stroke="#9FEF04" stroke-width="2" stroke-linecap="round" stroke-linejoin="round"/>
<circle cx="7.71206" cy="7.21426" r="2.07144" fill="#9FEF04"/>
<circle cx="7.71206" cy="19.6427" r="2.07144" fill="#9FEF04"/>
</svg>
