<svg width="31" height="28" viewBox="0 0 31 28" fill="none" xmlns="http://www.w3.org/2000/svg">
<path d="M27.9286 1H3.07143C1.92741 1 1 1.95247 1 3.12741V20.1467C1 21.3216 1.92741 22.2741 3.07143 22.2741H27.9286C29.0726 22.2741 30 21.3216 30 20.1467V3.12741C30 1.95247 29.0726 1 27.9286 1Z" stroke="#9FEF04" stroke-width="1.5" stroke-linejoin="round"/>
<path d="M18.3996 26.8324L17.9163 22.2737H13.0829L12.5996 26.8324H18.3996Z" fill="#9FEF04" stroke="#9FEF04" stroke-linecap="round" stroke-linejoin="round"/>
<path d="M22.75 26.833H8.25" stroke="#9FEF04" stroke-width="2" stroke-linecap="round" stroke-linejoin="round"/>
<path d="M1 16.9556V20.1467C1.00154 20.7104 1.22027 21.2506 1.60841 21.6492C1.99654 22.0479 2.52252 22.2725 3.07143 22.2741H27.9286C28.4775 22.2725 29.0035 22.0479 29.3916 21.6492C29.7797 21.2506 29.9985 20.7104 30 20.1467V16.9556H1ZM15.5 21.2104C15.2952 21.2104 15.0949 21.148 14.9246 21.0311C14.7543 20.9142 14.6215 20.7481 14.5431 20.5537C14.4647 20.3594 14.4442 20.1455 14.4842 19.9392C14.5241 19.7328 14.6228 19.5433 14.7676 19.3945C14.9125 19.2458 15.097 19.1445 15.2979 19.1034C15.4989 19.0624 15.7071 19.0834 15.8963 19.1639C16.0856 19.2445 16.2474 19.3808 16.3612 19.5557C16.475 19.7306 16.5357 19.9363 16.5357 20.1467C16.5357 20.4288 16.4266 20.6993 16.2324 20.8988C16.0381 21.0983 15.7747 21.2104 15.5 21.2104Z" fill="#9FEF04"/>
</svg>
